<?xml version="1.0" standalone="no"?>
<!DOCTYPE svg PUBLIC "-//W3C//DTD SVG 20010904//EN"
 "http://www.w3.org/TR/2001/REC-SVG-20010904/DTD/svg10.dtd">
<svg version="1.0" xmlns="http://www.w3.org/2000/svg"
 width="182.809256pt" height="336.550750pt" viewBox="0 0 182.809256 336.550750"
 preserveAspectRatio="xMidYMid meet">
<metadata>
Created by potrace 1.12, written by Peter Selinger 2001-2015
</metadata>
<g transform="translate(-0.190744,339.000000) scale(0.100000,-0.100000)"
fill="#000000" stroke="none">
<path d="M7 1883 c3 -830 8 -1511 12 -1515 3 -4 92 -37 196 -74 105 -36 251
-91 325 -121 74 -30 191 -76 260 -102 l125 -47 92 32 c50 18 120 44 155 59
113 48 592 225 625 231 l33 6 0 1519 0 1519 -914 0 -914 0 5 -1507z m1253 677
c0 -5 10 -10 23 -10 13 0 33 -11 45 -25 19 -22 22 -37 22 -115 0 -53 -4 -90
-10 -90 -5 0 -10 -9 -10 -20 0 -20 -7 -20 -270 -20 -173 0 -270 -4 -270 -10 0
-5 -5 -10 -11 -10 -25 0 -39 -30 -39 -84 0 -31 5 -56 10 -56 6 0 10 -7 10 -15
0 -8 7 -15 15 -15 8 0 15 -4 15 -10 0 -6 54 -10 141 -10 145 0 169 -6 169 -44
0 -9 5 -16 10 -16 6 0 10 -22 10 -50 0 -27 -4 -50 -10 -50 -5 0 -10 -14 -10
-31 0 -54 -15 -59 -159 -59 -81 0 -131 -4 -131 -10 0 -5 -11 -10 -25 -10 -16
0 -25 -6 -25 -16 0 -8 -4 -12 -10 -9 -6 4 -10 -17 -10 -54 0 -34 4 -61 10 -61
6 0 10 -9 10 -20 0 -11 7 -20 15 -20 8 0 15 -7 15 -15 0 -13 25 -15 165 -15
125 0 165 -3 166 -12 0 -10 2 -10 6 -1 3 8 13 4 31 -14 17 -17 22 -28 14 -31
-7 -2 -12 -12 -12 -23 0 -10 -4 -19 -10 -19 -5 0 -10 -8 -10 -18 0 -10 -9 -24
-20 -32 -21 -15 -28 -50 -10 -50 6 0 10 -7 10 -15 0 -11 11 -15 41 -15 24 0
38 -4 34 -10 -4 -6 23 -10 74 -10 47 0 81 -4 81 -10 0 -5 23 -10 50 -10 39 0
50 -4 50 -16 0 -21 -24 -44 -47 -44 -15 0 -16 -2 -3 -10 11 -7 7 -10 -17 -10
-18 0 -33 -4 -33 -10 0 -5 -13 -10 -30 -10 -16 0 -30 -4 -30 -10 0 -5 -20 -10
-45 -10 -25 0 -45 -4 -45 -10 0 -5 -13 -10 -30 -10 -17 0 -30 -5 -30 -12 0 -9
-4 -8 -10 2 -6 10 -10 11 -10 3 0 -9 -16 -13 -46 -13 -27 0 -43 -4 -39 -10 3
-6 1 -10 -4 -10 -6 0 -11 6 -12 13 0 9 -2 9 -6 0 -3 -8 -25 -13 -59 -13 -43 0
-52 -3 -48 -15 5 -12 -6 -15 -63 -15 -56 0 -72 4 -86 20 -18 21 -24 86 -7 75
6 -3 10 3 10 14 0 12 7 21 15 21 8 0 15 9 15 20 0 11 -7 20 -15 20 -8 0 -15 5
-15 10 0 6 -50 10 -131 10 -114 0 -134 2 -145 18 -10 12 -13 60 -14 177 0 107
-4 155 -10 145 -6 -10 -10 132 -10 410 0 278 4 420 10 410 7 -11 10 -4 10 28
0 35 3 42 20 42 11 0 20 5 20 10 0 6 28 10 65 10 37 0 65 4 65 10 0 6 110 10
310 10 200 0 310 -4 310 -10z"/>
</g>
</svg>
